<svg width="807.901" height="135" viewBox="0 0 807.901 135" xmlns="http://www.w3.org/2000/svg">
	<g id="svgGroup" stroke-linecap="round" fill-rule="evenodd" font-size="9pt" stroke="#000" stroke-width="0.25mm" fill="none" style="stroke:#000;stroke-width:0.25mm;fill:none">
		<path d="M 66 111 L 66 63.15 L 14.25 63.15 L 14.25 111 L 0 111 L 0 6 L 14.25 6 L 14.25 50.85 L 66 50.85 L 66 6 L 80.25 6 L 80.25 111 L 66 111 Z" id="0" vector-effect="non-scaling-stroke"/>
		<path d="M 119.25 33 L 119.25 111 L 105.75 111 L 105.75 33 L 119.25 33 Z M 112.5 19.65 Q 108.6 19.65 105.825 16.875 A 9.091 9.091 0 0 1 103.051 10.322 A 10.887 10.887 0 0 1 103.05 10.2 Q 103.05 5.85 105.6 3.3 A 8.492 8.492 0 0 1 110.016 0.987 A 12.396 12.396 0 0 1 112.5 0.75 Q 116.4 0.75 119.175 3.525 A 9.091 9.091 0 0 1 121.949 10.078 A 10.887 10.887 0 0 1 121.95 10.2 Q 121.95 14.55 119.4 17.1 A 8.492 8.492 0 0 1 114.984 19.413 A 12.396 12.396 0 0 1 112.5 19.65 Z" id="1" vector-effect="non-scaling-stroke"/>
		<path d="M 151.05 97.5 L 164.25 101.25 A 55.168 55.168 0 0 1 161.475 112.499 A 44.2 44.2 0 0 1 157.125 121.275 Q 151.65 129.75 143.1 135 L 135.75 130.8 A 84.047 84.047 0 0 0 142.312 121.179 A 69.927 69.927 0 0 0 145.35 115.35 A 73.969 73.969 0 0 0 148.925 105.863 A 96.878 96.878 0 0 0 151.05 97.5 Z" id="2" vector-effect="non-scaling-stroke"/>
		<path d="M 249 111 L 234.75 111 L 234.75 6 L 249 6 L 249 111 Z" id="4" vector-effect="non-scaling-stroke"/>
		<path d="M 267.3 6 L 280.35 6 L 279.15 39.3 L 268.5 39.3 L 267.3 6 Z" id="5" vector-effect="non-scaling-stroke"/>
		<path d="M 310.05 33 L 310.05 46.05 Q 314.25 39.75 320.625 35.475 Q 327 31.2 335.4 31.2 Q 343.701 31.2 349.253 34.725 A 19.271 19.271 0 0 1 350.55 35.625 A 23.685 23.685 0 0 1 358.073 45.388 A 29.618 29.618 0 0 1 358.95 47.7 Q 363.6 40.8 369.975 36 A 23.503 23.503 0 0 1 380.161 31.675 A 32.169 32.169 0 0 1 385.8 31.2 A 31.987 31.987 0 0 1 391.273 31.646 A 23.528 23.528 0 0 1 396.825 33.3 Q 401.55 35.4 404.7 39.225 A 24.493 24.493 0 0 1 408.508 45.729 A 29.817 29.817 0 0 1 409.425 48.375 A 38.063 38.063 0 0 1 410.779 55.471 A 47.991 47.991 0 0 1 411 60.15 L 411 111 L 397.5 111 L 397.5 61.2 Q 397.5 53.1 393.75 48.075 A 11.961 11.961 0 0 0 385.03 43.131 A 16.017 16.017 0 0 0 383.4 43.05 Q 379.95 43.05 376.8 44.4 A 24.815 24.815 0 0 0 371.517 47.509 A 28.083 28.083 0 0 0 370.8 48.075 A 38.432 38.432 0 0 0 366.367 52.348 A 43.783 43.783 0 0 0 365.4 53.475 Q 362.85 56.55 360.75 59.85 L 360.75 111 L 347.25 111 L 347.25 61.2 Q 347.25 53.1 343.5 48.075 A 11.961 11.961 0 0 0 334.78 43.131 A 16.017 16.017 0 0 0 333.15 43.05 Q 329.85 43.05 326.7 44.325 A 25.289 25.289 0 0 0 321.73 47.041 A 29.018 29.018 0 0 0 320.625 47.85 A 35.672 35.672 0 0 0 315.631 52.544 A 39.726 39.726 0 0 0 315.15 53.1 Q 312.6 56.1 310.5 59.4 L 310.5 111 L 297 111 L 297 33 L 310.05 33 Z" id="6" vector-effect="non-scaling-stroke"/>
		<path d="M 564.6 111 L 564.6 24.15 L 536.55 87.3 L 522.45 87.3 L 494.25 24.15 L 494.25 111 L 480.75 111 L 480.75 6 L 500.7 6 L 529.8 72.45 L 558.45 6 L 578.85 6 L 578.85 111 L 564.6 111 Z" id="8" vector-effect="non-scaling-stroke"/>
		<path d="M 657.75 39.3 L 657.75 33 L 670.05 33 L 670.05 92.1 A 18.225 18.225 0 0 0 670.202 94.554 Q 670.587 97.376 671.944 98.806 A 4.448 4.448 0 0 0 672.825 99.525 Q 675.6 101.25 678.9 101.25 L 676.05 111.75 Q 662.005 111.75 658.805 100.62 A 20.385 20.385 0 0 1 658.65 100.05 A 42.752 42.752 0 0 1 655.655 103.608 A 49.159 49.159 0 0 1 654.525 104.775 A 27.306 27.306 0 0 1 649.584 108.666 A 30.437 30.437 0 0 1 649.2 108.9 Q 646.2 110.7 642.45 111.75 A 28.147 28.147 0 0 1 637.47 112.652 A 35.186 35.186 0 0 1 634.2 112.8 Q 626.85 112.8 620.475 109.95 Q 614.1 107.1 609.375 101.85 Q 604.65 96.6 601.875 89.175 A 43.334 43.334 0 0 1 599.507 79.296 A 55.721 55.721 0 0 1 599.1 72.45 A 49.583 49.583 0 0 1 600.611 60.064 A 44.762 44.762 0 0 1 601.8 56.175 A 41.676 41.676 0 0 1 606.541 46.717 A 37.195 37.195 0 0 1 609.375 43.05 Q 614.25 37.5 621.075 34.35 A 34.686 34.686 0 0 1 634.243 31.238 A 40.623 40.623 0 0 1 636 31.2 A 33.876 33.876 0 0 1 643.19 31.936 A 28.055 28.055 0 0 1 648.225 33.525 A 39.003 39.003 0 0 1 654.655 36.966 A 33.154 33.154 0 0 1 657.75 39.3 Z M 656.55 91.05 L 656.55 49.2 Q 652.5 46.35 647.625 44.625 Q 642.75 42.9 637.35 42.9 A 24.213 24.213 0 0 0 630.65 43.804 A 21.671 21.671 0 0 0 627.45 45 Q 622.95 47.1 619.725 50.925 A 26.09 26.09 0 0 0 615.964 56.929 A 32.253 32.253 0 0 0 614.7 60.15 A 35.139 35.139 0 0 0 613.076 68.071 A 42.932 42.932 0 0 0 612.9 72 Q 612.9 78.3 614.7 83.625 A 28.924 28.924 0 0 0 617.515 89.661 A 24.818 24.818 0 0 0 619.8 92.775 Q 623.1 96.6 627.525 98.7 Q 631.95 100.8 637.2 100.8 Q 642.9 100.8 648 98.1 Q 653.1 95.4 656.55 91.05 Z" id="9" vector-effect="non-scaling-stroke"/>
		<path d="M 747 40.8 L 747 0 L 760.5 0 L 760.5 92.1 A 18.225 18.225 0 0 0 760.652 94.554 Q 761.037 97.376 762.394 98.806 A 4.448 4.448 0 0 0 763.275 99.525 Q 766.05 101.25 769.35 101.25 L 766.5 111.75 A 26.78 26.78 0 0 1 760.114 111.049 Q 751.469 108.922 749.1 100.35 A 31.162 31.162 0 0 1 744.157 105.706 A 40.514 40.514 0 0 1 739.8 108.975 A 22.318 22.318 0 0 1 732.695 111.96 Q 729.72 112.669 726.251 112.779 A 40.761 40.761 0 0 1 724.95 112.8 Q 717.75 112.8 711.375 109.95 Q 705 107.1 700.275 101.85 A 36.551 36.551 0 0 1 694.377 92.859 A 44.268 44.268 0 0 1 692.85 89.175 A 44.257 44.257 0 0 1 690.562 79.43 A 57.123 57.123 0 0 1 690.15 72.45 A 49.623 49.623 0 0 1 691.432 61.009 A 43.652 43.652 0 0 1 692.925 56.025 A 44.475 44.475 0 0 1 697.155 47.377 A 37.985 37.985 0 0 1 700.425 42.975 Q 705.15 37.5 711.45 34.35 Q 717.75 31.2 724.8 31.2 A 32.463 32.463 0 0 1 731.209 31.803 A 23.913 23.913 0 0 1 738.225 34.35 A 51.515 51.515 0 0 1 742.096 36.734 Q 743.93 37.986 745.387 39.261 A 24.885 24.885 0 0 1 747 40.8 Z M 747 91.35 L 747 52.65 A 24.409 24.409 0 0 0 743.729 49.286 Q 741.716 47.561 739.125 45.975 A 21.072 21.072 0 0 0 728.631 42.914 A 25.309 25.309 0 0 0 727.8 42.9 A 22.446 22.446 0 0 0 721.281 43.823 A 20.085 20.085 0 0 0 717.975 45.15 Q 713.55 47.4 710.4 51.3 A 26.313 26.313 0 0 0 706.519 57.952 A 31.587 31.587 0 0 0 705.6 60.525 A 37.237 37.237 0 0 0 704.041 69.163 A 43.793 43.793 0 0 0 703.95 72 A 38.391 38.391 0 0 0 704.585 79.111 A 31.822 31.822 0 0 0 705.75 83.55 A 29.776 29.776 0 0 0 708.557 89.556 A 25.661 25.661 0 0 0 710.775 92.625 Q 714 96.45 718.425 98.625 Q 722.85 100.8 727.95 100.8 Q 733.5 100.8 738.525 98.175 Q 743.55 95.55 747 91.35 Z" id="10" vector-effect="non-scaling-stroke"/>
		<path d="M 787.8 102.75 Q 787.8 98.1 790.425 95.4 Q 793.05 92.7 797.85 92.7 Q 801.75 92.7 804.825 95.7 A 10.432 10.432 0 0 1 807.032 98.743 A 9.338 9.338 0 0 1 807.9 102.75 A 11.541 11.541 0 0 1 807.439 106.092 A 9.046 9.046 0 0 1 805.05 110.025 A 9.691 9.691 0 0 1 798.784 112.767 A 12.908 12.908 0 0 1 797.85 112.8 A 9.626 9.626 0 0 1 790.894 109.893 A 12.475 12.475 0 0 1 790.8 109.8 Q 787.8 106.8 787.8 102.75 Z" id="11" vector-effect="non-scaling-stroke"/>
	</g>
</svg>
